<svg xmlns="http://www.w3.org/2000/svg" width="34.667" height="34.667" viewBox="0 0 34.667 34.667"><path d="M403.145,45.979H385.454a8.493,8.493,0,0,0-8.492,8.492V72.162a8.486,8.486,0,0,0,8.492,8.484h17.691a8.485,8.485,0,0,0,8.484-8.484V54.471A8.491,8.491,0,0,0,403.145,45.979Zm-16.164,23.2h-4.067a.59.59,0,0,1-.529-.283.628.628,0,0,1,0-.618l4.32-7.62v-.022l-2.749-4.76a.556.556,0,0,1,.529-.879h4.067a1.264,1.264,0,0,1,1.132.76s2.778,4.849,2.793,4.872l-4.387,7.762A1.247,1.247,0,0,1,386.981,69.182ZM406.2,50.322l-9,15.911a.023.023,0,0,0,0,.03l5.728,10.466a.621.621,0,0,1,.007.633.59.59,0,0,1-.536.253h-4.06a1.261,1.261,0,0,1-1.132-.767s-5.765-10.57-5.78-10.6l9.051-16.038a1.18,1.18,0,0,1,1.088-.775h4.1a.59.59,0,0,1,.536.253A.622.622,0,0,1,406.2,50.322Z" transform="translate(-376.962 -45.979)" fill="#fff"/></svg>