<svg xmlns="http://www.w3.org/2000/svg" width="34.667" height="34.667" viewBox="0 0 34.667 34.667"><path d="M491.319,45.979H473.628a8.493,8.493,0,0,0-8.492,8.492V72.162a8.486,8.486,0,0,0,8.492,8.484h17.691a8.485,8.485,0,0,0,8.484-8.484V54.471A8.491,8.491,0,0,0,491.319,45.979ZM475.133,76.207h-5.192V59.164h5.192Zm-2.577-19.6a3.066,3.066,0,0,1-3.136-3.069A3.109,3.109,0,0,1,472.51,50.4a3.076,3.076,0,0,1,3.106,3.106A2.986,2.986,0,0,1,472.555,56.609ZM495.52,76.17H490.1q0-2.648-.007-5.3c0-1.192.03-2.384-.022-3.576-.119-2.793-1-3.955-2.913-3.94-2,.007-3.061,1.318-3.129,4.06-.074,2.9-.015,5.8-.015,8.812h-5.326v-16.8c3.352-.879,4.8-.566,5.348,1.035a16.755,16.755,0,0,1,3.747-1.713c4.276-.819,6.786,1.08,7.509,5.445a11.931,11.931,0,0,1,.209,1.989C495.528,69.451,495.52,72.721,495.52,76.17Z" transform="translate(-465.136 -45.979)" fill="#fff"/></svg>