<svg xmlns="http://www.w3.org/2000/svg" width="34.667" height="34.667" viewBox="0 0 34.667 34.667"><path d="M138.623,45.979H120.932a8.493,8.493,0,0,0-8.492,8.492V72.162a8.486,8.486,0,0,0,8.492,8.484h17.691a8.485,8.485,0,0,0,8.484-8.484V54.471A8.491,8.491,0,0,0,138.623,45.979ZM118.25,52.154H141.3a1.786,1.786,0,0,1,1.594,1.728L129.774,64.534,116.656,53.882A1.786,1.786,0,0,1,118.25,52.154ZM116.6,56.273l8.879,7.211L116.6,70.4Zm24.693,18.2H118.25a1.783,1.783,0,0,1-1.594-1.713L127,64.706l2.324,1.892a.712.712,0,0,0,.909,0l2.332-1.892,10.332,8.052A1.783,1.783,0,0,1,141.3,74.471Zm1.646-4.075-8.879-6.913,8.879-7.211Z" transform="translate(-112.44 -45.979)" fill="#fff"/></svg>