<svg xmlns="http://www.w3.org/2000/svg" width="34.667" height="34.667" viewBox="0 0 34.667 34.667"><path d="M317.466,56.787c-.1-2.9-1.907-4.6-4.872-4.8-2.138-.149-4.3-.1-6.443-.1-1.847,0-3.687-.007-5.535,0a9.9,9.9,0,0,0-1.147.082c-2.659.283-4.514,1.646-4.656,4.246-.246,4.73-.2,9.5-.022,14.235a4.211,4.211,0,0,0,4.335,4.253c4.589.171,9.2.268,13.781.015,2.972-.164,4.454-1.855,4.559-4.8C317.63,65.54,317.623,61.153,317.466,56.787ZM306.032,70.642a7.267,7.267,0,1,1,7.315-7.263A7.147,7.147,0,0,1,306.032,70.642ZM313.66,57.5c-.566-.588-1.43-1.11-1.587-1.8-.112-.462.775-1.155,1.572-2.212.767,1.043,1.624,1.713,1.527,2.2C315.038,56.37,314.2,56.907,313.66,57.5Zm-7.509,1.2A4.7,4.7,0,1,0,306,68.11a4.858,4.858,0,0,0,4.79-4.648A4.734,4.734,0,0,0,306.151,58.7Zm11.315-1.914c-.1-2.9-1.907-4.6-4.872-4.8-2.138-.149-4.3-.1-6.443-.1-1.847,0-3.687-.007-5.535,0a9.9,9.9,0,0,0-1.147.082c-2.659.283-4.514,1.646-4.656,4.246-.246,4.73-.2,9.5-.022,14.235a4.211,4.211,0,0,0,4.335,4.253c4.589.171,9.2.268,13.781.015,2.972-.164,4.454-1.855,4.559-4.8C317.63,65.54,317.623,61.153,317.466,56.787ZM306.032,70.642a7.267,7.267,0,1,1,7.315-7.263A7.147,7.147,0,0,1,306.032,70.642ZM313.66,57.5c-.566-.588-1.43-1.11-1.587-1.8-.112-.462.775-1.155,1.572-2.212.767,1.043,1.624,1.713,1.527,2.2C315.038,56.37,314.2,56.907,313.66,57.5Zm-7.509,1.2A4.7,4.7,0,1,0,306,68.11a4.858,4.858,0,0,0,4.79-4.648A4.734,4.734,0,0,0,306.151,58.7Zm8.82-12.723H297.28a8.493,8.493,0,0,0-8.492,8.492V72.162a8.486,8.486,0,0,0,8.492,8.484h17.691a8.485,8.485,0,0,0,8.484-8.484V54.471A8.491,8.491,0,0,0,314.971,45.979Zm5.229,23.39c-.171,5.05-3.114,7.9-8.164,8.082-2,.067-3.993-.007-6-.007-2.071,0-4.149.074-6.22-.007-4.663-.194-7.635-3.084-7.777-7.7q-.179-6.224-.015-12.455c.127-4.812,2.927-7.769,7.739-7.993,4.149-.186,8.313-.179,12.455.007,4.894.209,7.8,3.2,7.963,8.082C320.327,61.369,320.334,65.376,320.2,69.369Zm-7.605-17.386c-2.138-.149-4.3-.1-6.443-.1-1.847,0-3.687-.007-5.535,0a9.9,9.9,0,0,0-1.147.082c-2.659.283-4.514,1.646-4.656,4.246-.246,4.73-.2,9.5-.022,14.235a4.211,4.211,0,0,0,4.335,4.253c4.589.171,9.2.268,13.781.015,2.972-.164,4.454-1.855,4.559-4.8.164-4.365.156-8.753,0-13.118C317.37,53.89,315.56,52.191,312.595,51.983Zm-6.563,18.66a7.267,7.267,0,1,1,7.315-7.263A7.147,7.147,0,0,1,306.032,70.642ZM313.66,57.5c-.566-.588-1.43-1.11-1.587-1.8-.112-.462.775-1.155,1.572-2.212.767,1.043,1.624,1.713,1.527,2.2C315.038,56.37,314.2,56.907,313.66,57.5Zm-7.509,1.2A4.7,4.7,0,1,0,306,68.11a4.858,4.858,0,0,0,4.79-4.648A4.734,4.734,0,0,0,306.151,58.7Zm11.315-1.914c-.1-2.9-1.907-4.6-4.872-4.8-2.138-.149-4.3-.1-6.443-.1-1.847,0-3.687-.007-5.535,0a9.9,9.9,0,0,0-1.147.082c-2.659.283-4.514,1.646-4.656,4.246-.246,4.73-.2,9.5-.022,14.235a4.211,4.211,0,0,0,4.335,4.253c4.589.171,9.2.268,13.781.015,2.972-.164,4.454-1.855,4.559-4.8C317.63,65.54,317.623,61.153,317.466,56.787ZM306.032,70.642a7.267,7.267,0,1,1,7.315-7.263A7.147,7.147,0,0,1,306.032,70.642ZM313.66,57.5c-.566-.588-1.43-1.11-1.587-1.8-.112-.462.775-1.155,1.572-2.212.767,1.043,1.624,1.713,1.527,2.2C315.038,56.37,314.2,56.907,313.66,57.5Zm-7.509,1.2A4.7,4.7,0,1,0,306,68.11a4.858,4.858,0,0,0,4.79-4.648A4.734,4.734,0,0,0,306.151,58.7Zm11.315-1.914c-.1-2.9-1.907-4.6-4.872-4.8-2.138-.149-4.3-.1-6.443-.1-1.847,0-3.687-.007-5.535,0a9.9,9.9,0,0,0-1.147.082c-2.659.283-4.514,1.646-4.656,4.246-.246,4.73-.2,9.5-.022,14.235a4.211,4.211,0,0,0,4.335,4.253c4.589.171,9.2.268,13.781.015,2.972-.164,4.454-1.855,4.559-4.8C317.63,65.54,317.623,61.153,317.466,56.787ZM306.032,70.642a7.267,7.267,0,1,1,7.315-7.263A7.147,7.147,0,0,1,306.032,70.642ZM313.66,57.5c-.566-.588-1.43-1.11-1.587-1.8-.112-.462.775-1.155,1.572-2.212.767,1.043,1.624,1.713,1.527,2.2C315.038,56.37,314.2,56.907,313.66,57.5Zm-7.509,1.2A4.7,4.7,0,1,0,306,68.11a4.858,4.858,0,0,0,4.79-4.648A4.734,4.734,0,0,0,306.151,58.7Z" transform="translate(-288.788 -45.979)" fill="#fff"/></svg>