<svg xmlns="http://www.w3.org/2000/svg" width="34.667" height="34.667" viewBox="0 0 34.667 34.667"><path d="M215.206,59.186l7.166,4.127-7.166,4.127Zm20.075-4.715V72.162a8.485,8.485,0,0,1-8.484,8.484H209.106a8.486,8.486,0,0,1-8.492-8.484V54.471a8.493,8.493,0,0,1,8.492-8.492H226.8A8.491,8.491,0,0,1,235.281,54.471Zm-4.134,2.22a3.449,3.449,0,0,0-2.428-2.421c-2.153-.588-10.771-.588-10.771-.588s-8.618,0-10.771.566a3.519,3.519,0,0,0-2.428,2.443,39.013,39.013,0,0,0,0,13.244,3.472,3.472,0,0,0,2.428,2.428c2.175.588,10.771.588,10.771.588s8.618,0,10.771-.566a3.472,3.472,0,0,0,2.428-2.428,36.389,36.389,0,0,0,.566-6.622A34.615,34.615,0,0,0,231.147,56.691Z" transform="translate(-200.614 -45.979)" fill="#fff"/></svg>